<?xml version="1.0" encoding="UTF-8"?>
<!DOCTYPE svg PUBLIC "-//W3C//DTD SVG 1.1//EN" "http://www.w3.org/Graphics/SVG/1.1/DTD/svg11.dtd">
<!-- Creator: CorelDRAW 2018 (64-Bit) -->
<svg xmlns="http://www.w3.org/2000/svg" xml:space="preserve" width="6.35mm" height="6.3556mm" version="1.1" style="shape-rendering:geometricPrecision; text-rendering:geometricPrecision; image-rendering:optimizeQuality; fill-rule:evenodd; clip-rule:evenodd"
viewBox="0 0 152.63 152.77"
 xmlns:xlink="http://www.w3.org/1999/xlink">
 <defs>
  <style type="text/css">
   <![CDATA[
    .fil0 {fill:#4B6BAF}
    .fil2 {fill:#B7C4DF}
    .fil1 {fill:#FEFEFE}
   ]]>
  </style>
 </defs>
 <g id="Слой_x0020_1">
  <metadata id="CorelCorpID_0Corel-Layer"/>
  <g id="_2165498363072">
   <path class="fil0" d="M79.41 152.77l0.01 -50.59 -18.32 -0.12c-0.16,-3.53 -0.53,-19.54 0.24,-21.14 0.57,-0.45 0.16,-0.39 2.02,-0.38l15.93 0.01c0.11,-3.04 -0.55,-16.5 0.36,-17.12 -0.26,-11.07 5.45,-19.52 12.57,-23.51 8.68,-4.87 20.16,-3.52 31.72,-2.88l-0.06 19.61c-7.22,0.42 -16.48,-1.29 -20.18,2.99 -3.12,3.61 -2,14.8 -1.96,21.05l21.1 0.02c0.08,0.67 -1.77,19.81 -2.99,21.44l-18.12 0.15 -0 46.16c3.91,-1.9 7.48,-2.79 12.49,-5.77 8.91,-5.29 11.28,-7.59 17.77,-14.02 3.03,-2.99 7.66,-9.4 9.83,-13.02 10.96,-18.29 13.34,-38.5 8.23,-59.19 -3.06,-12.39 -8.18,-20.13 -15.64,-29.73l-4.41 -4.86c-0.92,-0.92 -1.44,-1.15 -2.33,-1.98 -17.29,-16.09 -42.47,-23.15 -66,-18.5 -11.79,2.33 -27.82,9.46 -36.48,18.15 -3.05,3.07 -6.24,5.95 -8.81,9.41 -6.17,8.29 -9.36,13.85 -12.67,23.75 -7.2,21.54 -3.83,46.64 8.98,65.94 3.51,5.29 7.97,10.59 12.82,14.67 7.71,6.48 12.64,9.99 22.47,13.95 9.28,3.74 18.55,5.49 31.42,5.49z"/>
   <path class="fil1" d="M79.65 63.43l-0.15 17.43 -18.15 0.06c-0.77,1.6 -0.4,17.61 -0.24,21.14l18.32 0.12 -0.01 50.59c0.89,-0.26 9.92,-0.78 17,-2.72 1.64,-0.45 3.63,-1.17 5.31,-1.59l0 -46.16 18.12 -0.15c1.22,-1.63 3.07,-20.77 2.99,-21.44l-21.1 -0.02c-0.05,-6.24 -1.16,-17.44 1.96,-21.05 3.7,-4.29 12.96,-2.57 20.18,-2.99l0.06 -19.61c-11.56,-0.65 -23.04,-1.99 -31.72,2.88 -7.12,3.99 -12.83,12.44 -12.57,23.51z"/>
   <path class="fil2" d="M61.34 80.91l18.15 -0.06 0.15 -17.43c-0.9,0.62 -0.25,14.07 -0.36,17.12l-15.93 -0.01c-1.86,-0.01 -1.45,-0.07 -2.02,0.38z"/>
  </g>
 </g>
</svg>
