<?xml version="1.0" encoding="UTF-8"?>
<!DOCTYPE svg PUBLIC "-//W3C//DTD SVG 1.1//EN" "http://www.w3.org/Graphics/SVG/1.1/DTD/svg11.dtd">
<!-- Creator: CorelDRAW 2018 (64-Bit) -->
<svg xmlns="http://www.w3.org/2000/svg" xml:space="preserve" width="200px" height="117px" version="1.1" style="shape-rendering:geometricPrecision; text-rendering:geometricPrecision; image-rendering:optimizeQuality; fill-rule:evenodd; clip-rule:evenodd"
viewBox="0 0 200 117"
 xmlns:xlink="http://www.w3.org/1999/xlink">
 <defs>
  <style type="text/css">
   <![CDATA[
    .fil0 {fill:#FF0033;fill-rule:nonzero}
   ]]>
  </style>
 </defs>
 <g id="Слой_x0020_1">
  <metadata id="CorelCorpID_0Corel-Layer"/>
  <g id="_1610754871392">
   <polygon class="fil0" points="22.09,30.28 0,30.28 6.9,1.66 50.71,1.66 52.47,-0.23 78.08,-0.23 70.3,30.28 50.09,30.28 50.09,92.04 22.09,92.04 "/>
   <path class="fil0" d="M129.31 1.05c1.7,-0.42 3.69,-0.74 5.98,-0.96 2.29,-0.21 4.39,-0.31 6.3,-0.31 7.24,0 14.53,1.54 21.87,4.62 10.85,4.79 19.65,12.21 26.41,22.21 6.75,10.03 10.13,21.14 10.13,33.41 0,5.1 -0.58,10.05 -1.76,14.78 -1.17,4.74 -3.08,9.34 -5.74,13.81 -5,8.43 -12.29,15.29 -21.86,20.64 -9.58,5.32 -20.43,7.98 -32.56,7.98l-51.22 0 0 -80.06 -8.78 0 8.78 -36.12 35.11 0 0 25.22 7.34 -25.22zm33.99 58.57c0,-6.28 -2.18,-12 -6.55,-17.16 -4.36,-5.16 -9.15,-8.53 -14.36,-10.13 -0.74,0 -1.54,-0.05 -2.39,-0.16 -0.85,-0.11 -1.55,-0.16 -2.08,-0.16 -6.59,0 -11.91,1.97 -15.95,5.9l0 46.28 16.75 0c6.28,0 11.94,-2.39 17,-7.18 5.05,-4.79 7.58,-10.58 7.58,-17.39z"/>
  </g>
 </g>
</svg>
