<?xml version="1.0" encoding="UTF-8"?>
<!DOCTYPE svg PUBLIC "-//W3C//DTD SVG 1.1//EN" "http://www.w3.org/Graphics/SVG/1.1/DTD/svg11.dtd">
<!-- Creator: CorelDRAW 2018 (64-Bit) -->
<svg xmlns="http://www.w3.org/2000/svg" xml:space="preserve" width="6.35mm" height="6.35mm" version="1.1" style="shape-rendering:geometricPrecision; text-rendering:geometricPrecision; image-rendering:optimizeQuality; fill-rule:evenodd; clip-rule:evenodd"
viewBox="0 0 131.1 131.1"
 xmlns:xlink="http://www.w3.org/1999/xlink">
 <defs>
  <style type="text/css">
   <![CDATA[
    .fil0 {fill:#F38420}
    .fil1 {fill:#FEFEFC}
   ]]>
  </style>
 </defs>
 <g id="Слой_x0020_1">
  <metadata id="CorelCorpID_0Corel-Layer"/>
  <g id="_2165499061856">
   <path class="fil0" d="M-0 15.36l0 100.37c0,7.73 7.63,15.36 15.36,15.36l100.37 0c7.73,0 15.36,-7.63 15.36,-15.36l0 -100.37c0,-7.73 -7.63,-15.36 -15.36,-15.36l-100.37 0c-7.73,0 -15.36,7.63 -15.36,15.36z"/>
   <path class="fil1" d="M62.98 14.47c-13.49,1.41 -24.77,13.2 -23.22,28.48 1.35,13.32 13.42,24.73 28.6,23.07 13.28,-1.46 24.56,-13.37 22.95,-28.55 -1.4,-13.23 -13.31,-24.57 -28.33,-23z"/>
   <path class="fil1" d="M60.47 86.5c-0.63,1.15 -9.98,10.18 -11.72,11.92 -2.02,2.03 -3.86,3.87 -5.89,5.89 -1.64,1.63 -4.46,3.82 -2.98,7.89 0.81,2.24 3.7,4.97 7.16,4.49 2.77,-0.38 5.33,-3.62 6.74,-5.04 1.71,-1.7 10.87,-11.24 12.07,-11.83l11.59 11.7c1.41,1.4 3.88,4.7 6.62,5.15 3.63,0.59 6.32,-2.09 7.25,-4.36 1.6,-3.9 -1.33,-6.5 -2.82,-8 -2.48,-2.48 -16.74,-16.45 -17.73,-17.85 8.84,-0.64 16.39,-3.5 22.72,-8.84 1.85,-1.56 3.83,-3.78 2.31,-7.49 -0.95,-2.32 -2.97,-4.54 -6.44,-4.16 -4.76,0.52 -8.78,7.95 -23.8,7.96 -5.69,0 -12.57,-1.71 -16.72,-4.21 -2.04,-1.23 -4.05,-3.29 -6.84,-3.71 -5.53,-0.83 -10.42,6.54 -4.53,11.5 6.73,5.66 13.7,8.05 23.01,9z"/>
   <path class="fil0" d="M62.96 27.8c-6.15,1.35 -11.45,7.17 -9.91,14.92 1.21,6.1 7.32,11.65 15.06,10.02 5.98,-1.26 11.42,-7.18 9.96,-14.82 -1.2,-6.24 -7.29,-11.84 -15.11,-10.12z"/>
  </g>
 </g>
</svg>
