<?xml version="1.0" encoding="UTF-8"?>
<!DOCTYPE svg PUBLIC "-//W3C//DTD SVG 1.1//EN" "http://www.w3.org/Graphics/SVG/1.1/DTD/svg11.dtd">
<!-- Creator: CorelDRAW 2018 (64-Bit) -->
<svg xmlns="http://www.w3.org/2000/svg" xml:space="preserve" width="6.35mm" height="6.35mm" version="1.1" style="shape-rendering:geometricPrecision; text-rendering:geometricPrecision; image-rendering:optimizeQuality; fill-rule:evenodd; clip-rule:evenodd"
viewBox="0 0 120.81 120.81"
 xmlns:xlink="http://www.w3.org/1999/xlink">
 <defs>
  <style type="text/css">
   <![CDATA[
    .fil0 {fill:#2787F5}
    .fil1 {fill:white}
   ]]>
  </style>
 </defs>
 <g id="Слой_x0020_1">
  <metadata id="CorelCorpID_0Corel-Layer"/>
  <g id="_2165462147520">
   <path class="fil0" d="M-0 57.89c0,-27.28 0,-40.93 8.46,-49.43 8.51,-8.46 22.15,-8.46 49.43,-8.46l5.03 0c27.28,0 40.93,0 49.43,8.46 8.46,8.51 8.46,22.15 8.46,49.43l0 5.03c0,27.28 0,40.93 -8.46,49.43 -8.51,8.46 -22.15,8.46 -49.43,8.46l-5.03 0c-27.28,0 -40.93,0 -49.43,-8.46 -8.46,-8.51 -8.46,-22.15 -8.46,-49.43l0 -5.03z"/>
   <path class="fil1" d="M32.72 37.75l-8.81 0c-2.52,0 -3.02,1.21 -3.02,2.52 0,2.32 3.02,13.89 13.89,29.2 7.3,10.42 17.57,16.11 26.88,16.11 5.59,0 6.29,-1.26 6.29,-3.42l0 -7.9c0,-2.52 0.5,-3.02 2.32,-3.02 1.31,0 3.52,0.65 8.76,5.69 5.99,5.99 6.95,8.66 10.32,8.66l8.81 -0c2.52,0 3.77,-1.26 3.02,-3.73 -0.76,-2.52 -3.62,-6.04 -7.4,-10.32 -2.01,-2.47 -5.13,-5.03 -6.04,-6.34 -1.31,-1.71 -1.01,-2.47 0,-3.93 0,0 10.72,-15.1 11.83,-20.29 0.55,-1.86 0,-3.22 -2.67,-3.22l-8.81 0c0.41,0.14 0.83,0.21 1.26,0.21 0.43,0 0.85,-0.07 1.26,-0.21 0.4,-0.14 -4.53,10.87 -10.82,17.97 -2.06,2.06 -3.02,2.72 -4.13,2.72 -0.5,0 -1.36,-0.65 -1.36,-2.52l0 -14.95c0,-2.21 -0.65,-3.22 -2.52,-3.22l-13.84 0c-1.41,0 -2.27,1.01 -2.27,2.01 0,2.11 3.22,2.62 3.52,8.56l0 12.99c0,2.87 -0.5,3.37 -1.61,3.37 -3.02,0 -10.27,-10.97 -14.6,-23.51 -0.8,-2.42 -1.66,-3.42 -3.93,-3.42l-6.34 0z"/>
  </g>
 </g>
</svg>
