<?xml version="1.0" encoding="UTF-8"?>
<!DOCTYPE svg PUBLIC "-//W3C//DTD SVG 1.1//EN" "http://www.w3.org/Graphics/SVG/1.1/DTD/svg11.dtd">
<!-- Creator: CorelDRAW 2018 (64-Bit) -->
<svg xmlns="http://www.w3.org/2000/svg" xml:space="preserve" width="6.35mm" height="6.35mm" version="1.1" style="shape-rendering:geometricPrecision; text-rendering:geometricPrecision; image-rendering:optimizeQuality; fill-rule:evenodd; clip-rule:evenodd"
viewBox="0 0 68.62 68.62"
 xmlns:xlink="http://www.w3.org/1999/xlink">
 <defs>
  <style type="text/css">
   <![CDATA[
    .fil0 {fill:#0075A5}
    .fil1 {fill:#00A7EB}
    .fil2 {fill:#FEFFFF}
   ]]>
  </style>
 </defs>
 <g id="Слой_x0020_1">
  <metadata id="CorelCorpID_0Corel-Layer"/>
  <g id="_2165457248304">
   <path class="fil0" d="M-0 17l0 34.61c0,2.6 0.38,5.42 1.09,7.33 1.45,3.87 4.59,7.04 8.47,8.53 1.95,0.75 4.81,1.14 7.44,1.14l34.92 0c10.28,0 16.69,-5.99 16.69,-17l0 -34.61c0,-7.17 -2.73,-13.23 -9.56,-15.86 -1.95,-0.75 -4.81,-1.14 -7.44,-1.14l-34.61 0c-5.13,0 -9.09,1.05 -12.52,4.48 -3.43,3.43 -4.48,7.36 -4.48,12.52z"/>
   <path class="fil1" d="M15.56 0.28c-3.53,0.29 -5.54,0.57 -8.43,2.27 -0.19,0.11 -0.47,0.32 -0.62,0.44l-0.59 0.48c-0.39,0.36 -0.14,0.17 -0.59,0.48 -0.7,0.48 -1.68,1.71 -2.27,2.47 -0.17,0.21 -0.06,0.06 -0.27,0.34 -0.3,0.42 -0.53,0.88 -0.79,1.37 -0.5,0.93 -0.89,2 -1.16,3.13 -1.07,4.38 -0.67,19.77 -0.67,24.89 0,6.35 -0.88,18.68 1.62,23.94 0.46,0.97 0.97,1.85 1.67,2.62 0.36,0.39 0.17,0.14 0.48,0.59 0.66,0.96 0.98,1.02 1.63,1.58 3.6,3.11 7.8,3.53 13.57,3.56 5.67,0.02 11.33,0.01 17,0.01 6.26,0 18.77,0.88 23.93,-1.63 0.99,-0.48 2.02,-1.11 2.63,-1.66 1.38,-1.25 0.57,-0.14 2.15,-2.13 0.2,-0.25 0.01,-0.01 0.22,-0.24l1.54 -2.29c0.51,-0.95 0.88,-2 1.15,-3.13 1.1,-4.53 0.68,-19.72 0.68,-24.89 0,-6.3 0.87,-18.73 -1.62,-23.94 -1.08,-2.26 -1.29,-1.95 -2.15,-3.21 -0.21,-0.3 -0.2,-0.31 -0.47,-0.6l-1.15 -0.99c-3.6,-3.11 -7.81,-3.53 -13.57,-3.56 -5.67,-0.02 -11.33,-0.01 -17,-0.01 -5.31,0 -11.75,-0.31 -16.91,0.11z"/>
   <path class="fil2" d="M34.1 37.54c0.84,-0.37 11.36,-9.01 11.99,-9.53 1.94,-1.59 3.93,-3.19 5.94,-4.78 1.06,-0.84 1.89,-1.51 2.97,-2.39 0.59,-0.48 2.67,-2.01 2.92,-2.46l-47.36 0c0.27,0.42 2.29,1.95 2.81,2.38l20.72 16.77z"/>
   <path class="fil2" d="M10.69 50.37l47.3 -0.01c-0.5,-0.69 -12.54,-10.17 -13.89,-11.29l-4.74 -3.74c-0.93,0.56 -4.47,3.8 -5.07,3.83 -0.73,0.04 -4.12,-3.33 -5.23,-3.79 -0.41,0.58 -18.02,14.39 -18.37,14.99z"/>
   <path class="fil2" d="M9.04 49.65l18.96 -15.17c-0.44,-0.57 -8.68,-7.09 -9.44,-7.7l-9.48 -7.58 -0.04 30.46z"/>
   <path class="fil2" d="M40.62 34.31c0.27,0.38 0.63,0.6 1.03,0.93l8.3 6.71c1.09,0.83 8.7,7.15 9.49,7.56l-0.03 -30.31 -16.44 13.2c-0.7,0.57 -1.67,1.21 -2.34,1.91z"/>
  </g>
 </g>
</svg>
