<?xml version="1.0" encoding="UTF-8"?>
<!DOCTYPE svg PUBLIC "-//W3C//DTD SVG 1.1//EN" "http://www.w3.org/Graphics/SVG/1.1/DTD/svg11.dtd">
<!-- Creator: CorelDRAW 2018 (64-Bit) -->
<svg xmlns="http://www.w3.org/2000/svg" xml:space="preserve" width="6.35mm" height="6.35mm" version="1.1" style="shape-rendering:geometricPrecision; text-rendering:geometricPrecision; image-rendering:optimizeQuality; fill-rule:evenodd; clip-rule:evenodd"
viewBox="0 0 501.16 501.16"
 xmlns:xlink="http://www.w3.org/1999/xlink">
 <defs>
  <style type="text/css">
   <![CDATA[
    .fil0 {fill:#359BED}
    .fil1 {fill:#FEFFFF}
   ]]>
  </style>
 </defs>
 <g id="Слой_x0020_1">
  <metadata id="CorelCorpID_0Corel-Layer"/>
  <g id="_2165498750080">
   <polygon class="fil0" points="-0,501.16 501.16,501.16 501.16,0 -0,0 "/>
   <path class="fil1" d="M247.37 201.32c-39.17,-0.54 -80.71,-19.04 -108.84,-42.29 -4.92,-4.06 -9.4,-7.88 -13.44,-12 -3.72,-3.78 -7.85,-10.49 -12.68,-13.26 -2.26,8 -5.8,12.26 -7.38,22.94 -3,20.38 4.55,42.62 18.82,56.16 2.62,2.49 6.05,4.69 8.48,7.4 -14.17,-0.54 -17.77,-4.49 -28.37,-7.62 -0.98,24.21 12.7,43.95 30.17,55.52 7.16,4.74 13.24,5.26 20.35,8.83 -6.76,3.95 -19.13,2.23 -27.41,1.33 5.32,23.97 32.42,44.13 59.71,45.05 -3.57,6.41 -30.32,18.74 -40.28,21.77 -8.61,2.61 -16.31,4.45 -25.86,5.48 -5.95,0.64 -26.04,-0.24 -28.5,0.59 28.59,16.64 57.19,28.24 97.75,28.47 88.87,0.5 156.17,-53.77 180.18,-136.92 5.94,-20.55 5.76,-34.88 6.7,-56.8 9.11,-8.04 25.95,-20.83 31.59,-33.41 -12,3.56 -20.63,7.96 -34.84,9.29 2.63,-3.24 9.84,-7.26 15.93,-15.14 3.54,-4.56 9,-13.21 10.51,-20.06 -6.57,3.4 -14.34,7.32 -22.37,10.14 -19.16,6.73 -17.44,5.69 -24.15,0.13 -30.01,-24.88 -72.96,-18.95 -94.84,11.07 -12.99,17.83 -12.75,29.04 -11.25,53.31z"/>
  </g>
 </g>
</svg>
